<?xml version="1.0"?>
<svg xmlns="http://www.w3.org/2000/svg" width="510" height="220" version="1.0" id="ezcGraph"><defs><linearGradient id="Definition_LinearGradient_215_94_378_94_ffffffbf_0000007f"><stop offset="0" style="stop-color: #ffffff; stop-opacity: 0.25;"/><stop offset="1" style="stop-color: #000000; stop-opacity: 0.50;"/></linearGradient><linearGradient xmlns:xlink="http://www.w3.org/1999/xlink" id="LinearGradient_215_94_378_94_ffffffbf_0000007f" x1="215.1539" y1="94.0894" x2="378.3539" y2="94.0894" gradientUnits="userSpaceOnUse" xlink:href="#Definition_LinearGradient_215_94_378_94_ffffffbf_0000007f"/><linearGradient id="Definition_LinearGradient_224_105_387_105_ffffffbf_0000007f"><stop offset="0" style="stop-color: #ffffff; stop-opacity: 0.25;"/><stop offset="1" style="stop-color: #000000; stop-opacity: 0.50;"/></linearGradient><linearGradient xmlns:xlink="http://www.w3.org/1999/xlink" id="LinearGradient_224_105_387_105_ffffffbf_0000007f" x1="224.4000" y1="105.0000" x2="387.6000" y2="105.0000" gradientUnits="userSpaceOnUse" xlink:href="#Definition_LinearGradient_224_105_387_105_ffffffbf_0000007f"/><linearGradient id="Definition_LinearGradient_306_105_224_61_ffffffff_ffffff33"><stop offset="0" style="stop-color: #ffffff; stop-opacity: 0.00;"/><stop offset="1" style="stop-color: #ffffff; stop-opacity: 0.80;"/></linearGradient><linearGradient xmlns:xlink="http://www.w3.org/1999/xlink" id="LinearGradient_306_105_224_61_ffffffff_ffffff33" x1="306.0000" y1="105.0000" x2="224.4000" y2="61.0400" gradientUnits="userSpaceOnUse" xlink:href="#Definition_LinearGradient_306_105_224_61_ffffffff_ffffff33"/><linearGradient id="Definition_RadialGradient_248_136_163_87_0.00_ffffff33_ffffffcc"><stop offset="0" style="stop-color: #ffffff; stop-opacity: 0.80;"/><stop offset="1" style="stop-color: #ffffff; stop-opacity: 0.20;"/></linearGradient><radialGradient xmlns:xlink="http://www.w3.org/1999/xlink" id="RadialGradient_248_136_163_87_0.00_ffffff33_ffffffcc" cx="248.3001" cy="136.0844" fx="248.3001" fy="136.0844" r="163.2" gradientUnits="userSpaceOnUse" xlink:href="#Definition_RadialGradient_248_136_163_87_0.00_ffffff33_ffffffcc"/><linearGradient id="Definition_LinearGradient_296_94_215_50_ffffffff_ffffff33"><stop offset="0" style="stop-color: #ffffff; stop-opacity: 0.00;"/><stop offset="1" style="stop-color: #ffffff; stop-opacity: 0.80;"/></linearGradient><linearGradient xmlns:xlink="http://www.w3.org/1999/xlink" id="LinearGradient_296_94_215_50_ffffffff_ffffff33" x1="296.7539" y1="94.0894" x2="215.1539" y2="50.1294" gradientUnits="userSpaceOnUse" xlink:href="#Definition_LinearGradient_296_94_215_50_ffffffff_ffffff33"/><linearGradient id="Definition_RadialGradient_239_125_163_87_0.00_ffffff33_ffffffcc"><stop offset="0" style="stop-color: #ffffff; stop-opacity: 0.80;"/><stop offset="1" style="stop-color: #ffffff; stop-opacity: 0.20;"/></linearGradient><radialGradient xmlns:xlink="http://www.w3.org/1999/xlink" id="RadialGradient_239_125_163_87_0.00_ffffff33_ffffffcc" cx="239.0540" cy="125.1738" fx="239.0540" fy="125.1738" r="163.2" gradientUnits="userSpaceOnUse" xlink:href="#Definition_RadialGradient_239_125_163_87_0.00_ffffff33_ffffffcc"/></defs><g id="ezcGraphChart" color-rendering="optimizeQuality" shape-rendering="geometricPrecision" text-rendering="optimizeLegibility"><path d=" M 0.0000,220.0000 L 0.0000,0.0000 L 510.0000,0.0000 L 510.0000,220.0000 L 0.0000,220.0000 z " style="fill: #fbfbfb; fill-opacity: 1.00; stroke: none;" id="ezcGraphPolygon_1"/><path d=" M 0.0000,220.0000 L 0.0000,0.0000 L 102.0000,0.0000 L 102.0000,220.0000 L 0.0000,220.0000 z " style="fill: #000000; fill-opacity: 0.00; stroke: none;" id="ezcGraphPolygon_2"/><path d=" M 2.0000,16.0000 L 2.0000,2.0000 L 16.0000,2.0000 L 16.0000,16.0000 L 2.0000,16.0000 z " style="fill: #3465a4; fill-opacity: 1.00; stroke: none;" id="ezcGraphPolygon_3"/><path d=" M 2.0000,34.0000 L 2.0000,20.0000 L 16.0000,20.0000 L 16.0000,34.0000 L 2.0000,34.0000 z " style="fill: #4e9a06; fill-opacity: 1.00; stroke: none;" id="ezcGraphPolygon_5"/><path d=" M 2.0000,52.0000 L 2.0000,38.0000 L 16.0000,38.0000 L 16.0000,52.0000 L 2.0000,52.0000 z " style="fill: #cc0000; fill-opacity: 1.00; stroke: none;" id="ezcGraphPolygon_7"/><path d=" M 2.0000,70.0000 L 2.0000,56.0000 L 16.0000,56.0000 L 16.0000,70.0000 L 2.0000,70.0000 z " style="fill: #edd400; fill-opacity: 1.00; stroke: none;" id="ezcGraphPolygon_9"/><path d=" M 2.0000,88.0000 L 2.0000,74.0000 L 16.0000,74.0000 L 16.0000,88.0000 L 2.0000,88.0000 z " style="fill: #75505b; fill-opacity: 1.00; stroke: none;" id="ezcGraphPolygon_11"/><path d=" M 2.0000,106.0000 L 2.0000,92.0000 L 16.0000,92.0000 L 16.0000,106.0000 L 2.0000,106.0000 z " style="fill: #f57900; fill-opacity: 1.00; stroke: none;" id="ezcGraphPolygon_13"/><path d=" M 2.0000,124.0000 L 2.0000,110.0000 L 16.0000,110.0000 L 16.0000,124.0000 L 2.0000,124.0000 z " style="fill: #204a87; fill-opacity: 1.00; stroke: none;" id="ezcGraphPolygon_15"/><path d=" M 2.0000,142.0000 L 2.0000,128.0000 L 16.0000,128.0000 L 16.0000,142.0000 L 2.0000,142.0000 z " style="fill: #c17d11; fill-opacity: 1.00; stroke: none;" id="ezcGraphPolygon_17"/><path d=" M 2.0000,160.0000 L 2.0000,146.0000 L 16.0000,146.0000 L 16.0000,160.0000 L 2.0000,160.0000 z " style="fill: #3465a4; fill-opacity: 1.00; stroke: none;" id="ezcGraphPolygon_19"/><path d=" M 2.0000,178.0000 L 2.0000,164.0000 L 16.0000,164.0000 L 16.0000,178.0000 L 2.0000,178.0000 z " style="fill: #4e9a06; fill-opacity: 1.00; stroke: none;" id="ezcGraphPolygon_21"/><path d=" M 2.0000,196.0000 L 2.0000,182.0000 L 16.0000,182.0000 L 16.0000,196.0000 L 2.0000,196.0000 z " style="fill: #cc0000; fill-opacity: 1.00; stroke: none;" id="ezcGraphPolygon_23"/><path d="M 306.00,115.00 L 345.32,158.62 A 86.60,48.96 0 0,1 345.19,158.66 z" style="fill: #babdb6; fill-opacity: 0.06; stroke: none;" id="ezcGraphCircleSector_25"/><path d="M 306.00,115.00 L 346.19,157.35 A 85.60,47.96 0 0,1 343.40,158.14 z" style="fill: #babdb6; fill-opacity: 0.06; stroke: none;" id="ezcGraphCircleSector_26"/><path d="M 306.00,115.00 L 347.01,156.07 A 84.60,46.96 0 0,1 341.62,157.59 z" style="fill: #babdb6; fill-opacity: 0.06; stroke: none;" id="ezcGraphCircleSector_27"/><path d="M 306.00,115.00 L 347.80,154.80 A 83.60,45.96 0 0,1 339.87,157.02 z" style="fill: #babdb6; fill-opacity: 0.06; stroke: none;" id="ezcGraphCircleSector_28"/><path d="M 306.00,115.00 L 348.54,153.54 A 82.60,44.96 0 0,1 338.15,156.42 z" style="fill: #babdb6; fill-opacity: 0.06; stroke: none;" id="ezcGraphCircleSector_29"/><path d="M 296.75,104.09 L 335.94,147.75 A 86.60,48.96 0 1,1 336.07,147.71 z" style="fill: #babdb6; fill-opacity: 0.06; stroke: none;" id="ezcGraphCircleSector_30"/><ellipse cx="296.7539" cy="104.0894" rx="85.6000" ry="47.9600" style="fill: #babdb6; fill-opacity: 0.06; stroke: none;" id="ezcGraphCircle_31"/><ellipse cx="296.7539" cy="104.0894" rx="84.6000" ry="46.9600" style="fill: #babdb6; fill-opacity: 0.06; stroke: none;" id="ezcGraphCircle_32"/><ellipse cx="296.7539" cy="104.0894" rx="83.6000" ry="45.9600" style="fill: #babdb6; fill-opacity: 0.06; stroke: none;" id="ezcGraphCircle_33"/><ellipse cx="296.7539" cy="104.0894" rx="82.6000" ry="44.9600" style="fill: #babdb6; fill-opacity: 0.06; stroke: none;" id="ezcGraphCircle_34"/><path d="M 215.15,104.09 A 81.60,43.96 0 0,0 333.68,143.29 L 333.68,133.29 A 81.60,43.960000 0 0,1 215.15,94.09 z" style="fill: #cc0000; fill-opacity: 1.00; stroke: none;" id="ezcGraphCircularArc_35"/><path d="M 215.15,104.09 A 81.60,43.96 0 0,0 333.68,143.29 L 333.68,133.29 A 81.60,43.960000 0 0,1 215.15,94.09 z" style="fill: url(#LinearGradient_215_94_378_94_ffffffbf_0000007f); stroke: none;" id="ezcGraphCircularArc_36"/><path d="M 378.35,104.09 A 81.60,43.96 0 0,0 215.15,104.09 L 215.15,94.09 A 81.60,43.960000 0 0,1 378.35,94.09 z" style="fill: #cc0000; fill-opacity: 1.00; stroke: none;" id="ezcGraphCircularArc_37"/><path d="M 378.35,104.09 A 81.60,43.96 0 0,0 215.15,104.09 L 215.15,94.09 A 81.60,43.960000 0 0,1 378.35,94.09 z" style="fill: url(#LinearGradient_215_94_378_94_ffffffbf_0000007f); stroke: none;" id="ezcGraphCircularArc_38"/><path d="M 333.80,143.26 A 81.60,43.96 0 0,0 378.35,104.09 L 378.35,94.09 A 81.60,43.960000 0 0,1 333.80,133.26 z" style="fill: #cc0000; fill-opacity: 1.00; stroke: none;" id="ezcGraphCircularArc_39"/><path d="M 333.80,143.26 A 81.60,43.96 0 0,0 378.35,104.09 L 378.35,94.09 A 81.60,43.960000 0 0,1 333.80,133.26 z" style="fill: url(#LinearGradient_215_94_378_94_ffffffbf_0000007f); stroke: none;" id="ezcGraphCircularArc_40"/><path d=" M 333.6772,133.2916 L 296.7539,94.0894 L 296.7539,104.0894 L 333.6772,143.2916 L 333.6772,133.2916 z " style="fill: #cc0000; fill-opacity: 1.00; stroke: none;" id="ezcGraphPolygon_41"/><path d=" M 297.2539,95.3495 L 297.2539,103.8910 L 333.1772,142.0315 L 333.1772,133.4900 L 297.2539,95.3495 z " style="fill: none; stroke: #660000; stroke-width: 1; stroke-opacity: 1.00; stroke-linecap: round; stroke-linejoin: round;" id="ezcGraphPolygon_42"/><path d=" M 333.7995,133.2581 L 296.7539,94.0894 L 296.7539,104.0894 L 333.7995,143.2581 L 333.7995,133.2581 z " style="fill: #cc0000; fill-opacity: 1.00; stroke: none;" id="ezcGraphPolygon_43"/><path d=" M 297.2539,95.3457 L 297.2539,103.8904 L 333.2995,142.0018 L 333.2995,133.4571 L 297.2539,95.3457 z " style="fill: none; stroke: #660000; stroke-width: 1; stroke-opacity: 1.00; stroke-linecap: round; stroke-linejoin: round;" id="ezcGraphPolygon_44"/><path d=" M 343.0456,144.1686 L 306.0000,105.0000 L 306.0000,115.0000 L 343.0456,154.1686 L 343.0456,144.1686 z " style="fill: #3465a4; fill-opacity: 1.00; stroke: none;" id="ezcGraphPolygon_45"/><path d=" M 306.5000,106.2563 L 306.5000,114.8010 L 342.5456,152.9123 L 342.5456,144.3676 L 306.5000,106.2563 z " style="fill: none; stroke: #1a3352; stroke-width: 1; stroke-opacity: 1.00; stroke-linecap: round; stroke-linejoin: round;" id="ezcGraphPolygon_46"/><path d=" M 343.0212,144.1754 L 306.0000,105.0000 L 306.0000,115.0000 L 343.0212,154.1754 L 343.0212,144.1754 z " style="fill: #3465a4; fill-opacity: 1.00; stroke: none;" id="ezcGraphPolygon_47"/><path d=" M 306.5000,106.2571 L 306.5000,114.8011 L 342.5212,152.9183 L 342.5212,144.3742 L 306.5000,106.2571 z " style="fill: none; stroke: #1a3352; stroke-width: 1; stroke-opacity: 1.00; stroke-linecap: round; stroke-linejoin: round;" id="ezcGraphPolygon_48"/><path d=" M 343.0212,144.1754 L 306.0000,105.0000 L 306.0000,115.0000 L 343.0212,154.1754 L 343.0212,144.1754 z " style="fill: #4e9a06; fill-opacity: 1.00; stroke: none;" id="ezcGraphPolygon_49"/><path d=" M 306.5000,106.2571 L 306.5000,114.8011 L 342.5212,152.9183 L 342.5212,144.3742 L 306.5000,106.2571 z " style="fill: none; stroke: #274d03; stroke-width: 1; stroke-opacity: 1.00; stroke-linecap: round; stroke-linejoin: round;" id="ezcGraphPolygon_50"/><path d=" M 342.9600,144.1921 L 306.0000,105.0000 L 306.0000,115.0000 L 342.9600,154.1921 L 342.9600,144.1921 z " style="fill: #4e9a06; fill-opacity: 1.00; stroke: none;" id="ezcGraphPolygon_51"/><path d=" M 306.5000,106.2590 L 306.5000,114.8014 L 342.4600,152.9331 L 342.4600,144.3907 L 306.5000,106.2590 z " style="fill: none; stroke: #274d03; stroke-width: 1; stroke-opacity: 1.00; stroke-linecap: round; stroke-linejoin: round;" id="ezcGraphPolygon_52"/><path d=" M 342.9600,144.1921 L 306.0000,105.0000 L 306.0000,115.0000 L 342.9600,154.1921 L 342.9600,144.1921 z " style="fill: #75505b; fill-opacity: 1.00; stroke: none;" id="ezcGraphPolygon_53"/><path d=" M 306.5000,106.2590 L 306.5000,114.8014 L 342.4600,152.9331 L 342.4600,144.3907 L 306.5000,106.2590 z " style="fill: none; stroke: #3b282e; stroke-width: 1; stroke-opacity: 1.00; stroke-linecap: round; stroke-linejoin: round;" id="ezcGraphPolygon_54"/><path d=" M 342.9233,144.2022 L 306.0000,105.0000 L 306.0000,115.0000 L 342.9233,154.2022 L 342.9233,144.2022 z " style="fill: #75505b; fill-opacity: 1.00; stroke: none;" id="ezcGraphPolygon_55"/><path d=" M 306.5000,106.2601 L 306.5000,114.8016 L 342.4233,152.9420 L 342.4233,144.4006 L 306.5000,106.2601 z " style="fill: none; stroke: #3b282e; stroke-width: 1; stroke-opacity: 1.00; stroke-linecap: round; stroke-linejoin: round;" id="ezcGraphPolygon_56"/><path d="M 343.02,154.18 A 81.60,43.96 0 0,0 343.05,154.17 L 343.05,144.17 A 81.60,43.960000 0 0,1 343.02,144.18 z" style="fill: #3465a4; fill-opacity: 1.00; stroke: none;" id="ezcGraphCircularArc_57"/><path d="M 343.02,154.18 A 81.60,43.96 0 0,0 343.05,154.17 L 343.05,144.17 A 81.60,43.960000 0 0,1 343.02,144.18 z" style="fill: url(#LinearGradient_224_105_387_105_ffffffbf_0000007f); stroke: none;" id="ezcGraphCircularArc_58"/><path d="M 342.96,154.19 A 81.60,43.96 0 0,0 343.02,154.18 L 343.02,144.18 A 81.60,43.960000 0 0,1 342.96,144.19 z" style="fill: #4e9a06; fill-opacity: 1.00; stroke: none;" id="ezcGraphCircularArc_59"/><path d="M 342.96,154.19 A 81.60,43.96 0 0,0 343.02,154.18 L 343.02,144.18 A 81.60,43.960000 0 0,1 342.96,144.19 z" style="fill: url(#LinearGradient_224_105_387_105_ffffffbf_0000007f); stroke: none;" id="ezcGraphCircularArc_60"/><path d="M 342.92,154.20 A 81.60,43.96 0 0,0 342.96,154.19 L 342.96,144.19 A 81.60,43.960000 0 0,1 342.92,144.20 z" style="fill: #75505b; fill-opacity: 1.00; stroke: none;" id="ezcGraphCircularArc_61"/><path d="M 342.92,154.20 A 81.60,43.96 0 0,0 342.96,154.19 L 342.96,144.19 A 81.60,43.960000 0 0,1 342.92,144.20 z" style="fill: url(#LinearGradient_224_105_387_105_ffffffbf_0000007f); stroke: none;" id="ezcGraphCircularArc_62"/><path d="M 306.00,105.00 L 343.05,144.17 A 81.60,43.96 0 0,1 343.02,144.18 z" style="fill: #3465a4; fill-opacity: 1.00; stroke: none;" id="ezcGraphCircleSector_63"/><path d="M 306.00,105.00 L 342.59,143.63 A 80.60,43.36 0 0,1 342.57,143.64 z" style="fill: url(#LinearGradient_306_105_224_61_ffffffff_ffffff33); stroke: none;" id="ezcGraphCircleSector_64"/><path d="M 343.05,144.17  A 81.60,43.96 0 0,1 343.02,144.18" style="fill: none; stroke: url(#RadialGradient_248_136_163_87_0.00_ffffff33_ffffffcc);" id="ezcGraphCircularArc_65"/><path d="M 306.00,105.00 L 343.02,144.18 A 81.60,43.96 0 0,1 342.96,144.19 z" style="fill: #4e9a06; fill-opacity: 1.00; stroke: none;" id="ezcGraphCircleSector_66"/><path d="M 306.00,105.00 L 342.57,143.64 A 80.60,43.36 0 0,1 342.51,143.66 z" style="fill: url(#LinearGradient_306_105_224_61_ffffffff_ffffff33); stroke: none;" id="ezcGraphCircleSector_67"/><path d="M 343.02,144.18  A 81.60,43.96 0 0,1 342.96,144.19" style="fill: none; stroke: url(#RadialGradient_248_136_163_87_0.00_ffffff33_ffffffcc);" id="ezcGraphCircularArc_68"/><path d="M 306.00,105.00 L 342.96,144.19 A 81.60,43.96 0 0,1 342.92,144.20 z" style="fill: #75505b; fill-opacity: 1.00; stroke: none;" id="ezcGraphCircleSector_69"/><path d="M 306.00,105.00 L 342.51,143.66 A 80.60,43.36 0 0,1 342.47,143.67 z" style="fill: url(#LinearGradient_306_105_224_61_ffffffff_ffffff33); stroke: none;" id="ezcGraphCircleSector_70"/><path d="M 342.96,144.19  A 81.60,43.96 0 0,1 342.92,144.20" style="fill: none; stroke: url(#RadialGradient_248_136_163_87_0.00_ffffff33_ffffffcc);" id="ezcGraphCircularArc_71"/><path d="M 296.75,94.09 L 333.68,133.29 A 81.60,43.96 0 1,1 333.80,133.26 z" style="fill: #cc0000; fill-opacity: 1.00; stroke: none;" id="ezcGraphCircleSector_72"/><path d="M 296.75,94.09 L 333.22,132.76 A 80.60,43.36 0 1,1 333.35,132.72 z" style="fill: url(#LinearGradient_296_94_215_50_ffffffff_ffffff33); stroke: none;" id="ezcGraphCircleSector_73"/><path d="M 296.75,94.09 L 332.85,133.06 A 81.10,43.46 0 1,1 333.94,132.76 z" style="fill: none; stroke: #660000; stroke-width: 1; stroke-opacity: 1.00; stroke-linecap: round; stroke-linejoin: round;" id="ezcGraphCircleSector_74"/><path d="M 333.68,133.29  A 81.60,43.96 0 0,1 215.15,94.09" style="fill: none; stroke: url(#RadialGradient_239_125_163_87_0.00_ffffff33_ffffffcc);" id="ezcGraphCircularArc_75"/><path d="M 215.15,94.09  A 81.60,43.96 0 0,1 378.35,94.09" style="fill: none; stroke: url(#RadialGradient_239_125_163_87_0.00_ffffff33_ffffffcc);" id="ezcGraphCircularArc_76"/><path d="M 378.35,94.09  A 81.60,43.96 0 0,1 333.80,133.26" style="fill: none; stroke: url(#RadialGradient_239_125_163_87_0.00_ffffff33_ffffffcc);" id="ezcGraphCircularArc_77"/><path d=" M 272.0976,67.8469 L 226.7675,39.0000" style="fill: none; stroke: #555753; stroke-width: 1; stroke-opacity: 0.47; stroke-linecap: round; stroke-linejoin: round;" id="ezcGraphLine_78"/><ellipse cx="272.0976" cy="67.8469" rx="3.0000" ry="3.0000" style="fill: #555753; fill-opacity: 0.47; stroke: none;" id="ezcGraphCircle_79"/><ellipse cx="226.7675" cy="39.0000" rx="3.0000" ry="3.0000" style="fill: #555753; fill-opacity: 0.47; stroke: none;" id="ezcGraphCircle_80"/><path d=" M 330.6889,131.2335 L 401.4595,159.0000" style="fill: none; stroke: #555753; stroke-width: 1; stroke-opacity: 0.47; stroke-linecap: round; stroke-linejoin: round;" id="ezcGraphLine_82"/><ellipse cx="330.6889" cy="131.2335" rx="3.0000" ry="3.0000" style="fill: #555753; fill-opacity: 0.47; stroke: none;" id="ezcGraphCircle_83"/><ellipse cx="401.4595" cy="159.0000" rx="3.0000" ry="3.0000" style="fill: #555753; fill-opacity: 0.47; stroke: none;" id="ezcGraphCircle_84"/><path d=" M 330.6604,131.2413 L 385.2325,181.0000" style="fill: none; stroke: #555753; stroke-width: 1; stroke-opacity: 0.47; stroke-linecap: round; stroke-linejoin: round;" id="ezcGraphLine_86"/><ellipse cx="330.6604" cy="131.2413" rx="3.0000" ry="3.0000" style="fill: #555753; fill-opacity: 0.47; stroke: none;" id="ezcGraphCircle_87"/><ellipse cx="385.2325" cy="181.0000" rx="3.0000" ry="3.0000" style="fill: #555753; fill-opacity: 0.47; stroke: none;" id="ezcGraphCircle_88"/><path d=" M 330.6278,131.2503 L 353.8927,203.0000" style="fill: none; stroke: #555753; stroke-width: 1; stroke-opacity: 0.47; stroke-linecap: round; stroke-linejoin: round;" id="ezcGraphLine_90"/><ellipse cx="330.6278" cy="131.2503" rx="3.0000" ry="3.0000" style="fill: #555753; fill-opacity: 0.47; stroke: none;" id="ezcGraphCircle_91"/><ellipse cx="353.8927" cy="203.0000" rx="3.0000" ry="3.0000" style="fill: #555753; fill-opacity: 0.47; stroke: none;" id="ezcGraphCircle_92"/><g id="ezcGraphTextBox_4"><path d=" M 16.5000,16.0000 L 16.5000,2.5000 L 68.8800,2.5000 L 68.8800,16.0000 L 16.5000,16.0000 z " style="fill: #ffffff; fill-opacity: 0.00; stroke: none;" id="ezcGraphPolygon_94"/><text id="ezcGraphTextBox_4_text" x="17.0000" text-length="50.8800px" y="13.2000" style="font-size: 12px; font-family: 'sans-serif'; fill: #2e3436; fill-opacity: 1.00; stroke: none;">Mai 2011</text></g><g id="ezcGraphTextBox_6"><path d=" M 16.5000,34.0000 L 16.5000,20.5000 L 68.8800,20.5000 L 68.8800,34.0000 L 16.5000,34.0000 z " style="fill: #ffffff; fill-opacity: 0.00; stroke: none;" id="ezcGraphPolygon_95"/><text id="ezcGraphTextBox_6_text" x="17.0000" text-length="50.8800px" y="31.2000" style="font-size: 12px; font-family: 'sans-serif'; fill: #2e3436; fill-opacity: 1.00; stroke: none;">Jun 2011</text></g><g id="ezcGraphTextBox_8"><path d=" M 16.5000,52.0000 L 16.5000,38.5000 L 68.8800,38.5000 L 68.8800,52.0000 L 16.5000,52.0000 z " style="fill: #ffffff; fill-opacity: 0.00; stroke: none;" id="ezcGraphPolygon_96"/><text id="ezcGraphTextBox_8_text" x="17.0000" text-length="50.8800px" y="49.2000" style="font-size: 12px; font-family: 'sans-serif'; fill: #2e3436; fill-opacity: 1.00; stroke: none;">Jul 2011</text></g><g id="ezcGraphTextBox_10"><path d=" M 16.5000,70.0000 L 16.5000,56.5000 L 68.8800,56.5000 L 68.8800,70.0000 L 16.5000,70.0000 z " style="fill: #ffffff; fill-opacity: 0.00; stroke: none;" id="ezcGraphPolygon_97"/><text id="ezcGraphTextBox_10_text" x="17.0000" text-length="50.8800px" y="67.2000" style="font-size: 12px; font-family: 'sans-serif'; fill: #2e3436; fill-opacity: 1.00; stroke: none;">Ago 2011</text></g><g id="ezcGraphTextBox_12"><path d=" M 16.5000,88.0000 L 16.5000,74.5000 L 68.8800,74.5000 L 68.8800,88.0000 L 16.5000,88.0000 z " style="fill: #ffffff; fill-opacity: 0.00; stroke: none;" id="ezcGraphPolygon_98"/><text id="ezcGraphTextBox_12_text" x="17.0000" text-length="50.8800px" y="85.2000" style="font-size: 12px; font-family: 'sans-serif'; fill: #2e3436; fill-opacity: 1.00; stroke: none;">Set 2011</text></g><g id="ezcGraphTextBox_14"><path d=" M 16.5000,106.0000 L 16.5000,92.5000 L 68.8800,92.5000 L 68.8800,106.0000 L 16.5000,106.0000 z " style="fill: #ffffff; fill-opacity: 0.00; stroke: none;" id="ezcGraphPolygon_99"/><text id="ezcGraphTextBox_14_text" x="17.0000" text-length="50.8800px" y="103.2000" style="font-size: 12px; font-family: 'sans-serif'; fill: #2e3436; fill-opacity: 1.00; stroke: none;">Out 2011</text></g><g id="ezcGraphTextBox_16"><path d=" M 16.5000,124.0000 L 16.5000,110.5000 L 68.8800,110.5000 L 68.8800,124.0000 L 16.5000,124.0000 z " style="fill: #ffffff; fill-opacity: 0.00; stroke: none;" id="ezcGraphPolygon_100"/><text id="ezcGraphTextBox_16_text" x="17.0000" text-length="50.8800px" y="121.2000" style="font-size: 12px; font-family: 'sans-serif'; fill: #2e3436; fill-opacity: 1.00; stroke: none;">Nov 2011</text></g><g id="ezcGraphTextBox_18"><path d=" M 16.5000,142.0000 L 16.5000,128.5000 L 68.8800,128.5000 L 68.8800,142.0000 L 16.5000,142.0000 z " style="fill: #ffffff; fill-opacity: 0.00; stroke: none;" id="ezcGraphPolygon_101"/><text id="ezcGraphTextBox_18_text" x="17.0000" text-length="50.8800px" y="139.2000" style="font-size: 12px; font-family: 'sans-serif'; fill: #2e3436; fill-opacity: 1.00; stroke: none;">Dez 2011</text></g><g id="ezcGraphTextBox_20"><path d=" M 16.5000,160.0000 L 16.5000,146.5000 L 68.8800,146.5000 L 68.8800,160.0000 L 16.5000,160.0000 z " style="fill: #ffffff; fill-opacity: 0.00; stroke: none;" id="ezcGraphPolygon_102"/><text id="ezcGraphTextBox_20_text" x="17.0000" text-length="50.8800px" y="157.2000" style="font-size: 12px; font-family: 'sans-serif'; fill: #2e3436; fill-opacity: 1.00; stroke: none;">Jan 2012</text></g><g id="ezcGraphTextBox_22"><path d=" M 16.5000,178.0000 L 16.5000,164.5000 L 68.8800,164.5000 L 68.8800,178.0000 L 16.5000,178.0000 z " style="fill: #ffffff; fill-opacity: 0.00; stroke: none;" id="ezcGraphPolygon_103"/><text id="ezcGraphTextBox_22_text" x="17.0000" text-length="50.8800px" y="175.2000" style="font-size: 12px; font-family: 'sans-serif'; fill: #2e3436; fill-opacity: 1.00; stroke: none;">Fev 2012</text></g><g id="ezcGraphTextBox_24"><path d=" M 16.5000,196.0000 L 16.5000,182.5000 L 49.8000,182.5000 L 49.8000,196.0000 L 16.5000,196.0000 z " style="fill: #ffffff; fill-opacity: 0.00; stroke: none;" id="ezcGraphPolygon_104"/><text id="ezcGraphTextBox_24_text" x="17.0000" text-length="31.8000px" y="193.2000" style="font-size: 12px; font-family: 'sans-serif'; fill: #2e3436; fill-opacity: 1.00; stroke: none;">Falta</text></g><g id="ezcGraphTextBox_81"><path d=" M 124.8675,46.0000 L 124.8675,32.5000 L 221.7675,32.5000 L 221.7675,46.0000 L 124.8675,46.0000 z " style="fill: #ffffff; fill-opacity: 0.00; stroke: none;" id="ezcGraphPolygon_105"/><text id="ezcGraphTextBox_81_text" x="125.3675" text-length="95.4000px" y="43.2000" style="font-size: 12px; font-family: 'sans-serif'; fill: #2e3436; fill-opacity: 1.00; stroke: none;"> 100.0 % (3735)</text></g><g id="ezcGraphTextBox_85"><path d=" M 406.9595,166.0000 L 406.9595,152.5000 L 472.0595,152.5000 L 472.0595,166.0000 L 406.9595,166.0000 z " style="fill: #ffffff; fill-opacity: 0.00; stroke: none;" id="ezcGraphPolygon_106"/><text id="ezcGraphTextBox_85_text" x="407.4595" text-length="63.6000px" y="163.2000" style="font-size: 12px; font-family: 'sans-serif'; fill: #2e3436; fill-opacity: 1.00; stroke: none;"> 0.0 % (0)</text></g><g id="ezcGraphTextBox_89"><path d=" M 390.7325,188.0000 L 390.7325,174.5000 L 455.8325,174.5000 L 455.8325,188.0000 L 390.7325,188.0000 z " style="fill: #ffffff; fill-opacity: 0.00; stroke: none;" id="ezcGraphPolygon_107"/><text id="ezcGraphTextBox_89_text" x="391.2325" text-length="63.6000px" y="185.2000" style="font-size: 12px; font-family: 'sans-serif'; fill: #2e3436; fill-opacity: 1.00; stroke: none;"> 0.0 % (0)</text></g><g id="ezcGraphTextBox_93"><path d=" M 359.3927,210.0000 L 359.3927,196.5000 L 424.4927,196.5000 L 424.4927,210.0000 L 359.3927,210.0000 z " style="fill: #ffffff; fill-opacity: 0.00; stroke: none;" id="ezcGraphPolygon_108"/><text id="ezcGraphTextBox_93_text" x="359.8927" text-length="63.6000px" y="207.2000" style="font-size: 12px; font-family: 'sans-serif'; fill: #2e3436; fill-opacity: 1.00; stroke: none;"> 0.0 % (0)</text></g></g></svg>
