<?xml version="1.0"?>
<svg xmlns="http://www.w3.org/2000/svg" width="240" height="220" version="1.0" id="ezcGraph"><defs><linearGradient id="Definition_LinearGradient_66_94_174_94_ffffffbf_0000007f"><stop offset="0" style="stop-color: #ffffff; stop-opacity: 0.25;"/><stop offset="1" style="stop-color: #000000; stop-opacity: 0.50;"/></linearGradient><linearGradient xmlns:xlink="http://www.w3.org/1999/xlink" id="LinearGradient_66_94_174_94_ffffffbf_0000007f" x1="66.0000" y1="94.0000" x2="174.0000" y2="94.0000" gradientUnits="userSpaceOnUse" xlink:href="#Definition_LinearGradient_66_94_174_94_ffffffbf_0000007f"/><linearGradient id="Definition_LinearGradient_120_94_66_66_ffffffff_ffffff33"><stop offset="0" style="stop-color: #ffffff; stop-opacity: 0.00;"/><stop offset="1" style="stop-color: #ffffff; stop-opacity: 0.80;"/></linearGradient><linearGradient xmlns:xlink="http://www.w3.org/1999/xlink" id="LinearGradient_120_94_66_66_ffffffff_ffffff33" x1="120.0000" y1="94.0000" x2="66.0000" y2="66.6000" gradientUnits="userSpaceOnUse" xlink:href="#Definition_LinearGradient_120_94_66_66_ffffffff_ffffff33"/><linearGradient id="Definition_RadialGradient_81_113_108_54_0.00_ffffff33_ffffffcc"><stop offset="0" style="stop-color: #ffffff; stop-opacity: 0.80;"/><stop offset="1" style="stop-color: #ffffff; stop-opacity: 0.20;"/></linearGradient><radialGradient xmlns:xlink="http://www.w3.org/1999/xlink" id="RadialGradient_81_113_108_54_0.00_ffffff33_ffffffcc" cx="81.8162" cy="113.3747" fx="81.8162" fy="113.3747" r="108" gradientUnits="userSpaceOnUse" xlink:href="#Definition_RadialGradient_81_113_108_54_0.00_ffffff33_ffffffcc"/></defs><g id="ezcGraphChart" color-rendering="optimizeQuality" shape-rendering="geometricPrecision" text-rendering="optimizeLegibility"><path d=" M 0.0000,220.0000 L 0.0000,0.0000 L 240.0000,0.0000 L 240.0000,220.0000 L 0.0000,220.0000 z " style="fill: #fbfbfb; fill-opacity: 1.00; stroke: none;" id="ezcGraphPolygon_1"/><path d=" M 0.0000,220.0000 L 0.0000,198.0000 L 240.0000,198.0000 L 240.0000,220.0000 L 0.0000,220.0000 z " style="fill: #000000; fill-opacity: 0.00; stroke: none;" id="ezcGraphPolygon_2"/><path d=" M 2.0000,214.0000 L 2.0000,200.0000 L 16.0000,200.0000 L 16.0000,214.0000 L 2.0000,214.0000 z " style="fill: #3465a4; fill-opacity: 1.00; stroke: none;" id="ezcGraphPolygon_3"/><path d=" M 121.0000,214.0000 L 121.0000,200.0000 L 135.0000,200.0000 L 135.0000,214.0000 L 121.0000,214.0000 z " style="fill: #4e9a06; fill-opacity: 1.00; stroke: none;" id="ezcGraphPolygon_5"/><ellipse cx="120.0000" cy="104.0000" rx="59.0000" ry="32.4000" style="fill: #babdb6; fill-opacity: 0.06; stroke: none;" id="ezcGraphCircle_7"/><ellipse cx="120.0000" cy="104.0000" rx="58.0000" ry="31.4000" style="fill: #babdb6; fill-opacity: 0.06; stroke: none;" id="ezcGraphCircle_8"/><ellipse cx="120.0000" cy="104.0000" rx="57.0000" ry="30.4000" style="fill: #babdb6; fill-opacity: 0.06; stroke: none;" id="ezcGraphCircle_9"/><ellipse cx="120.0000" cy="104.0000" rx="56.0000" ry="29.4000" style="fill: #babdb6; fill-opacity: 0.06; stroke: none;" id="ezcGraphCircle_10"/><ellipse cx="120.0000" cy="104.0000" rx="55.0000" ry="28.4000" style="fill: #babdb6; fill-opacity: 0.06; stroke: none;" id="ezcGraphCircle_11"/><path d="M 66.00,104.00 A 54.00,27.40 0 0,0 67.64,110.69 L 67.64,100.69 A 54.00,27.400000 0 0,1 66.00,94.00 z" style="fill: #4e9a06; fill-opacity: 1.00; stroke: none;" id="ezcGraphCircularArc_12"/><path d="M 66.00,104.00 A 54.00,27.40 0 0,0 67.64,110.69 L 67.64,100.69 A 54.00,27.400000 0 0,1 66.00,94.00 z" style="fill: url(#LinearGradient_66_94_174_94_ffffffbf_0000007f); stroke: none;" id="ezcGraphCircularArc_13"/><path d="M 174.00,104.00 A 54.00,27.40 0 0,0 66.00,104.00 L 66.00,94.00 A 54.00,27.400000 0 0,1 174.00,94.00 z" style="fill: #4e9a06; fill-opacity: 1.00; stroke: none;" id="ezcGraphCircularArc_14"/><path d="M 174.00,104.00 A 54.00,27.40 0 0,0 66.00,104.00 L 66.00,94.00 A 54.00,27.400000 0 0,1 174.00,94.00 z" style="fill: url(#LinearGradient_66_94_174_94_ffffffbf_0000007f); stroke: none;" id="ezcGraphCircularArc_15"/><path d="M 144.52,128.41 A 54.00,27.40 0 0,0 174.00,104.00 L 174.00,94.00 A 54.00,27.400000 0 0,1 144.52,118.41 z" style="fill: #4e9a06; fill-opacity: 1.00; stroke: none;" id="ezcGraphCircularArc_16"/><path d="M 144.52,128.41 A 54.00,27.40 0 0,0 174.00,104.00 L 174.00,94.00 A 54.00,27.400000 0 0,1 144.52,118.41 z" style="fill: url(#LinearGradient_66_94_174_94_ffffffbf_0000007f); stroke: none;" id="ezcGraphCircularArc_17"/><path d=" M 67.6368,100.6949 L 120.0000,94.0000 L 120.0000,104.0000 L 67.6368,110.6949 L 67.6368,100.6949 z " style="fill: #3465a4; fill-opacity: 1.00; stroke: none;" id="ezcGraphPolygon_18"/><path d=" M 119.5000,94.5680 L 119.5000,103.5599 L 68.1368,110.1269 L 68.1368,101.1351 L 119.5000,94.5680 z " style="fill: none; stroke: #1a3352; stroke-width: 1; stroke-opacity: 1.00; stroke-linecap: round; stroke-linejoin: round;" id="ezcGraphPolygon_19"/><path d=" M 67.6368,100.6949 L 120.0000,94.0000 L 120.0000,104.0000 L 67.6368,110.6949 L 67.6368,100.6949 z " style="fill: #4e9a06; fill-opacity: 1.00; stroke: none;" id="ezcGraphPolygon_20"/><path d=" M 119.5000,94.5680 L 119.5000,103.5599 L 68.1368,110.1269 L 68.1368,101.1351 L 119.5000,94.5680 z " style="fill: none; stroke: #274d03; stroke-width: 1; stroke-opacity: 1.00; stroke-linecap: round; stroke-linejoin: round;" id="ezcGraphPolygon_21"/><path d=" M 144.5155,118.4136 L 120.0000,94.0000 L 120.0000,104.0000 L 144.5155,128.4136 L 144.5155,118.4136 z " style="fill: #3465a4; fill-opacity: 1.00; stroke: none;" id="ezcGraphPolygon_22"/><path d=" M 120.5000,95.2036 L 120.5000,103.7923 L 144.0155,127.2100 L 144.0155,118.6213 L 120.5000,95.2036 z " style="fill: none; stroke: #1a3352; stroke-width: 1; stroke-opacity: 1.00; stroke-linecap: round; stroke-linejoin: round;" id="ezcGraphPolygon_23"/><path d=" M 144.5155,118.4136 L 120.0000,94.0000 L 120.0000,104.0000 L 144.5155,128.4136 L 144.5155,118.4136 z " style="fill: #4e9a06; fill-opacity: 1.00; stroke: none;" id="ezcGraphPolygon_24"/><path d=" M 120.5000,95.2036 L 120.5000,103.7923 L 144.0155,127.2100 L 144.0155,118.6213 L 120.5000,95.2036 z " style="fill: none; stroke: #274d03; stroke-width: 1; stroke-opacity: 1.00; stroke-linecap: round; stroke-linejoin: round;" id="ezcGraphPolygon_25"/><path d="M 67.64,110.69 A 54.00,27.40 0 0,0 144.52,128.41 L 144.52,118.41 A 54.00,27.400000 0 0,1 67.64,100.69 z" style="fill: #3465a4; fill-opacity: 1.00; stroke: none;" id="ezcGraphCircularArc_26"/><path d="M 67.64,110.69 A 54.00,27.40 0 0,0 144.52,128.41 L 144.52,118.41 A 54.00,27.400000 0 0,1 67.64,100.69 z" style="fill: url(#LinearGradient_66_94_174_94_ffffffbf_0000007f); stroke: none;" id="ezcGraphCircularArc_27"/><path d="M 120.00,94.00 L 144.52,118.41 A 54.00,27.40 0 0,1 67.64,100.69 z" style="fill: #3465a4; fill-opacity: 1.00; stroke: none;" id="ezcGraphCircleSector_28"/><path d="M 120.00,94.00 L 144.06,117.88 A 53.00,26.80 0 0,1 68.61,100.55 z" style="fill: url(#LinearGradient_120_94_66_66_ffffffff_ffffff33); stroke: none;" id="ezcGraphCircleSector_29"/><path d="M 119.93,94.64 L 143.68,118.19 A 53.50,26.90 0 0,1 68.36,101.08 z" style="fill: none; stroke: #1a3352; stroke-width: 1; stroke-opacity: 1.00; stroke-linecap: round; stroke-linejoin: round;" id="ezcGraphCircleSector_30"/><path d="M 144.52,118.41  A 54.00,27.40 0 0,1 67.64,100.69" style="fill: none; stroke: url(#RadialGradient_81_113_108_54_0.00_ffffff33_ffffffcc);" id="ezcGraphCircularArc_31"/><path d="M 120.00,94.00 L 67.64,100.69 A 54.00,27.40 0 1,1 144.52,118.41 z" style="fill: #4e9a06; fill-opacity: 1.00; stroke: none;" id="ezcGraphCircleSector_32"/><path d="M 120.00,94.00 L 68.61,100.55 A 53.00,26.80 0 1,1 144.06,117.88 z" style="fill: url(#LinearGradient_120_94_66_66_ffffffff_ffffff33); stroke: none;" id="ezcGraphCircleSector_33"/><path d="M 120.33,93.45 L 67.91,100.18 A 53.50,26.90 0 1,1 144.65,117.94 z" style="fill: none; stroke: #274d03; stroke-width: 1; stroke-opacity: 1.00; stroke-linecap: round; stroke-linejoin: round;" id="ezcGraphCircleSector_34"/><path d="M 67.64,100.69  A 54.00,27.40 0 0,1 66.00,94.00" style="fill: none; stroke: url(#RadialGradient_81_113_108_54_0.00_ffffff33_ffffffcc);" id="ezcGraphCircularArc_35"/><path d="M 66.00,94.00  A 54.00,27.40 0 0,1 174.00,94.00" style="fill: none; stroke: url(#RadialGradient_81_113_108_54_0.00_ffffff33_ffffffcc);" id="ezcGraphCircularArc_36"/><path d="M 174.00,94.00  A 54.00,27.40 0 0,1 144.52,118.41" style="fill: none; stroke: url(#RadialGradient_81_113_108_54_0.00_ffffff33_ffffffcc);" id="ezcGraphCircularArc_37"/><path d=" M 105.1119,110.3886 L 60.4183,126.0000" style="fill: none; stroke: #555753; stroke-width: 1; stroke-opacity: 0.47; stroke-linecap: round; stroke-linejoin: round;" id="ezcGraphLine_38"/><ellipse cx="105.1119" cy="110.3886" rx="3.0000" ry="3.0000" style="fill: #555753; fill-opacity: 0.47; stroke: none;" id="ezcGraphCircle_39"/><ellipse cx="60.4183" cy="126.0000" rx="3.0000" ry="3.0000" style="fill: #555753; fill-opacity: 0.47; stroke: none;" id="ezcGraphCircle_40"/><path d=" M 134.8881,77.6114 L 172.4327,61.0000" style="fill: none; stroke: #555753; stroke-width: 1; stroke-opacity: 0.47; stroke-linecap: round; stroke-linejoin: round;" id="ezcGraphLine_42"/><ellipse cx="134.8881" cy="77.6114" rx="3.0000" ry="3.0000" style="fill: #555753; fill-opacity: 0.47; stroke: none;" id="ezcGraphCircle_43"/><ellipse cx="172.4327" cy="61.0000" rx="3.0000" ry="3.0000" style="fill: #555753; fill-opacity: 0.47; stroke: none;" id="ezcGraphCircle_44"/><g id="ezcGraphTextBox_4"><path d=" M 16.5000,214.0000 L 16.5000,200.5000 L 49.8000,200.5000 L 49.8000,214.0000 L 16.5000,214.0000 z " style="fill: #ffffff; fill-opacity: 0.00; stroke: none;" id="ezcGraphPolygon_46"/><text id="ezcGraphTextBox_4_text" x="17.0000" text-length="31.8000px" y="211.2000" style="font-size: 12px; font-family: 'sans-serif'; fill: #2e3436; fill-opacity: 1.00; stroke: none;">Novas</text></g><g id="ezcGraphTextBox_6"><path d=" M 135.5000,214.0000 L 135.5000,200.5000 L 200.6000,200.5000 L 200.6000,214.0000 L 135.5000,214.0000 z " style="fill: #ffffff; fill-opacity: 0.00; stroke: none;" id="ezcGraphPolygon_47"/><text id="ezcGraphTextBox_6_text" x="136.0000" text-length="63.6000px" y="211.2000" style="font-size: 12px; font-family: 'sans-serif'; fill: #2e3436; fill-opacity: 1.00; stroke: none;">Evolutivas</text></g><g id="ezcGraphTextBox_41"><path d=" M 20.5283,136.0500 L 20.5283,116.4500 L 55.4183,116.4500 L 55.4183,136.0500 L 20.5283,136.0500 z " style="fill: #ffffff; fill-opacity: 0.00; stroke: none;" id="ezcGraphPolygon_48"/><text id="ezcGraphTextBox_41_text" x="21.0283" text-length="33.3900px" y="124.6000" style="font-size: 9px; font-family: 'sans-serif'; fill: #2e3436; fill-opacity: 1.00; stroke: none;"> 28.6 %</text><text id="ezcGraphTextBox_41_text" x="35.3383" text-length="19.0800px" y="134.5000" style="font-size: 9px; font-family: 'sans-serif'; fill: #2e3436; fill-opacity: 1.00; stroke: none;">(16)</text></g><g id="ezcGraphTextBox_45"><path d=" M 177.9327,66.5000 L 177.9327,56.0000 L 236.6727,56.0000 L 236.6727,66.5000 L 177.9327,66.5000 z " style="fill: #ffffff; fill-opacity: 0.00; stroke: none;" id="ezcGraphPolygon_49"/><text id="ezcGraphTextBox_45_text" x="178.4327" text-length="57.2400px" y="64.1500" style="font-size: 9px; font-family: 'sans-serif'; fill: #2e3436; fill-opacity: 1.00; stroke: none;"> 71.4 % (40)</text></g></g></svg>
